<?xml version="1.0" standalone="no"?>
<!DOCTYPE svg PUBLIC "-//W3C//DTD SVG 20010904//EN"
 "http://www.w3.org/TR/2001/REC-SVG-20010904/DTD/svg10.dtd">
<svg version="1.0" xmlns="http://www.w3.org/2000/svg"
 width="160.000000pt" height="160.000000pt" viewBox="0 0 160.000000 160.000000"
 preserveAspectRatio="xMidYMid meet">
<metadata>
Created by potrace 1.14, written by Peter Selinger 2001-2017
</metadata>
<g transform="translate(0.000000,160.000000) scale(0.100000,-0.100000)"
fill="#000000" stroke="none">
<path d="M718 1463 c6 -2 18 -2 25 0 6 3 1 5 -13 5 -14 0 -19 -2 -12 -5z"/>
<path d="M938 1463 c23 -2 59 -2 80 0 20 2 1 4 -43 4 -44 0 -61 -2 -37 -4z"/>
<path d="M730 1424 c0 -13 -7 -15 -32 -10 -17 3 -28 3 -25 -1 14 -13 -47 -31
-68 -20 -16 7 -18 7 -8 -3 20 -22 -36 -60 -88 -60 l-43 0 42 -27 c27 -18 42
-35 42 -48 0 -11 9 -26 20 -33 12 -7 19 -21 17 -35 -2 -21 -19 -47 -32 -47 -3
0 -3 6 1 13 6 10 4 10 -7 0 -25 -24 -28 -13 -8 22 26 44 18 46 -9 3 -22 -35
-20 -67 4 -47 12 9 13 6 8 -19 -9 -43 3 -82 24 -82 13 0 17 -10 19 -48 3 -55
22 -140 33 -147 4 -2 21 -6 38 -7 23 -2 32 -8 37 -26 3 -12 3 -27 0 -31 -2 -5
2 -29 11 -55 14 -40 19 -46 44 -46 21 0 42 14 82 56 29 30 57 64 62 75 5 10
12 19 15 19 3 0 5 27 4 59 -2 56 0 60 26 71 43 17 74 85 66 142 -6 36 -4 46 9
51 18 7 22 71 7 121 -5 17 -13 45 -18 61 -4 17 -18 34 -31 40 -27 12 -28 20
-3 42 20 17 19 33 -2 33 -7 0 -6 -4 3 -10 13 -8 13 -10 -1 -10 -21 0 -32 -39
-16 -59 7 -8 -8 -3 -33 11 -25 15 -65 32 -90 39 -25 7 -49 16 -54 21 -17 14
-46 9 -46 -8z m-85 -234 c10 -11 16 -20 13 -20 -3 0 -13 9 -23 20 -10 11 -16
20 -13 20 3 0 13 -9 23 -20z m80 -30 c3 -5 1 -10 -4 -10 -6 0 -11 5 -11 10 0
6 2 10 4 10 3 0 8 -4 11 -10z m60 -20 c4 -6 10 -8 14 -6 4 3 8 -1 8 -9 0 -12
-4 -12 -21 2 -12 10 -23 19 -25 20 -2 2 1 3 7 3 6 0 14 -5 17 -10z m-147 -35
c-3 -3 -9 2 -12 12 -6 14 -5 15 5 6 7 -7 10 -15 7 -18z m-60 -20 c0 -19 -4
-32 -9 -29 -15 9 -9 64 7 64 1 0 2 -16 2 -35z m412 15 c0 -5 -2 -10 -4 -10 -3
0 -8 5 -11 10 -3 6 -1 10 4 10 6 0 11 -4 11 -10z m-30 -14 c0 -2 -7 -7 -16
-10 -8 -3 -12 -2 -9 4 6 10 25 14 25 6z m-137 -13 c-19 -3 -34 -11 -36 -21 -3
-12 -5 -10 -6 6 -1 19 3 22 37 20 36 -1 36 -1 5 -5z m44 -30 c0 -9 -4 -10 -14
-2 -7 6 -13 12 -13 14 0 1 6 2 13 2 8 0 14 -6 14 -14z m-120 -9 c-3 -3 -12 -4
-19 -1 -8 3 -5 6 6 6 11 1 17 -2 13 -5z m-30 -30 c-3 -3 -12 -4 -19 -1 -8 3
-5 6 6 6 11 1 17 -2 13 -5z m-32 -54 c-3 -5 -19 -10 -36 -10 -16 0 -29 5 -29
10 0 6 16 10 36 10 21 0 33 -4 29 -10z"/>
<path d="M828 1423 c7 -3 16 -2 19 1 4 3 -2 6 -13 5 -11 0 -14 -3 -6 -6z"/>
<path d="M931 1414 c0 -11 3 -14 6 -6 3 7 2 16 -1 19 -3 4 -6 -2 -5 -13z"/>
<path d="M628 1413 c6 -2 18 -2 25 0 6 3 1 5 -13 5 -14 0 -19 -2 -12 -5z"/>
<path d="M884 1405 c36 -19 45 -19 20 0 -10 8 -26 14 -34 15 -8 0 -2 -7 14
-15z"/>
<path d="M162 1380 c0 -14 2 -19 5 -12 2 6 2 18 0 25 -3 6 -5 1 -5 -13z"/>
<path d="M536 1348 c3 -4 11 -5 19 -1 21 7 19 12 -4 10 -11 0 -18 -5 -15 -9z"/>
<path d="M152 1300 c0 -14 2 -19 5 -12 2 6 2 18 0 25 -3 6 -5 1 -5 -13z"/>
<path d="M1034 1286 c-8 -9 -7 -15 2 -23 9 -9 13 -9 17 1 8 20 -6 36 -19 22z"/>
<path d="M152 1220 c0 -14 2 -19 5 -12 2 6 2 18 0 25 -3 6 -5 1 -5 -13z"/>
<path d="M1040 1211 c0 -5 5 -13 10 -16 6 -3 10 -2 10 4 0 5 -4 13 -10 16 -5
3 -10 2 -10 -4z"/>
<path d="M161 1054 c0 -11 3 -14 6 -6 3 7 2 16 -1 19 -3 4 -6 -2 -5 -13z"/>
<path d="M515 1060 c3 -5 8 -10 11 -10 2 0 4 5 4 10 0 6 -5 10 -11 10 -5 0 -7
-4 -4 -10z"/>
<path d="M551 994 c0 -11 3 -14 6 -6 3 7 2 16 -1 19 -3 4 -6 -2 -5 -13z"/>
<path d="M960 791 c0 -5 5 -13 10 -16 6 -3 10 -2 10 4 0 5 -4 13 -10 16 -5 3
-10 2 -10 -4z"/>
<path d="M988 753 c7 -3 16 -2 19 1 4 3 -2 6 -13 5 -11 0 -14 -3 -6 -6z"/>
<path d="M1592 725 c0 -16 2 -22 5 -12 2 9 2 23 0 30 -3 6 -5 -1 -5 -18z"/>
<path d="M1025 730 c5 -9 2 -10 -13 -6 -16 5 -34 -9 -93 -74 l-72 -81 -33 32
c-26 25 -41 31 -82 33 -43 3 -55 -1 -73 -20 -12 -13 -25 -21 -29 -19 -5 3 -11
32 -15 66 -7 60 -8 61 -34 53 -14 -4 -34 -7 -43 -8 -9 0 -15 -3 -12 -7 6 -11
-64 -51 -76 -44 -6 4 -9 1 -8 -7 2 -7 -6 -13 -17 -13 -13 0 -19 -6 -17 -18 3
-15 -14 -23 -41 -18 -5 1 -6 -3 -2 -9 3 -6 10 -8 15 -5 4 3 2 -17 -5 -43 -8
-26 -23 -146 -35 -267 -11 -121 -23 -232 -25 -247 l-4 -28 534 0 c441 0 535 2
535 13 0 8 -7 36 -15 63 -8 27 -15 53 -15 58 0 11 15 -2 16 -15 1 -5 2 -13 3
-19 0 -5 5 -10 9 -10 5 0 7 21 5 48 -10 132 -25 256 -39 308 -13 52 -13 59 2
75 15 17 15 18 -4 16 -13 -1 -18 -6 -14 -17 5 -13 3 -13 -11 -1 -9 7 -14 18
-10 25 3 6 3 8 -2 4 -12 -11 -87 31 -92 52 -6 23 -61 61 -130 90 -29 12 -50
26 -48 30 3 5 0 12 -6 16 -8 5 -9 3 -4 -6z"/>
<path d="M1067 709 c7 -7 15 -10 18 -7 3 3 -2 9 -12 12 -14 6 -15 5 -6 -5z"/>
<path d="M1562 700 c0 -14 2 -19 5 -12 2 6 2 18 0 25 -3 6 -5 1 -5 -13z"/>
<path d="M439 708 c-8 -26 -5 -36 8 -31 11 4 12 8 3 13 -9 6 -9 9 1 13 10 4
10 6 2 6 -7 1 -13 0 -14 -1z"/>
<path d="M1148 678 c5 -5 16 -8 23 -6 8 3 3 7 -10 11 -17 4 -21 3 -13 -5z"/>
<path d="M1235 590 c3 -5 14 -10 23 -10 15 0 15 2 2 10 -20 13 -33 13 -25 0z"/>
<path d="M1361 474 c0 -11 3 -14 6 -6 3 7 2 16 -1 19 -3 4 -6 -2 -5 -13z"/>
<path d="M1381 404 c0 -11 3 -14 6 -6 3 7 2 16 -1 19 -3 4 -6 -2 -5 -13z"/>
<path d="M62 260 c0 -14 2 -19 5 -12 2 6 2 18 0 25 -3 6 -5 1 -5 -13z"/>
<path d="M1492 220 c0 -14 2 -19 5 -12 2 6 2 18 0 25 -3 6 -5 1 -5 -13z"/>
<path d="M52 180 c0 -14 2 -19 5 -12 2 6 2 18 0 25 -3 6 -5 1 -5 -13z"/>
<path d="M1512 175 c0 -16 2 -22 5 -12 2 9 2 23 0 30 -3 6 -5 -1 -5 -18z"/>
<path d="M1502 100 c0 -14 2 -19 5 -12 2 6 2 18 0 25 -3 6 -5 1 -5 -13z"/>
<path d="M50 96 c0 -8 4 -17 9 -20 5 -4 7 3 4 14 -6 23 -13 26 -13 6z"/>
</g>
</svg>
